<svg width="142" height="221" viewBox="0 0 142 221" fill="none" xmlns="http://www.w3.org/2000/svg">
<rect x="8.94531" y="28.02" width="2.55738" height="2.55738" transform="rotate(-22.9428 8.94531 28.02)" fill="#2A6089"/>
<rect x="24.6455" y="21.374" width="2.55738" height="2.55738" transform="rotate(-22.9428 24.6455 21.374)" fill="#2A6089"/>
<rect x="40.3467" y="14.7275" width="2.55738" height="2.55738" transform="rotate(-22.9428 40.3467 14.7275)" fill="#2A6089"/>
<rect x="56.0469" y="8.08203" width="2.55738" height="2.55738" transform="rotate(-22.9428 56.0469 8.08203)" fill="#2A6089"/>
<rect x="71.7471" y="1.43604" width="2.55738" height="2.55738" transform="rotate(-22.9428 71.7471 1.43604)" fill="#2A6089"/>
<rect x="-0.110352" y="50.3667" width="2.55738" height="2.55738" transform="rotate(-22.9428 -0.110352 50.3667)" fill="#2A6089"/>
<rect x="15.5908" y="43.7207" width="2.55738" height="2.55738" transform="rotate(-22.9428 15.5908 43.7207)" fill="#2A6089"/>
<rect x="31.291" y="37.0747" width="2.55738" height="2.55738" transform="rotate(-22.9428 31.291 37.0747)" fill="#2A6089"/>
<rect x="46.9932" y="30.4282" width="2.55738" height="2.55738" transform="rotate(-22.9428 46.9932 30.4282)" fill="#2A6089"/>
<rect x="62.6924" y="23.7827" width="2.55738" height="2.55738" transform="rotate(-22.9428 62.6924 23.7827)" fill="#2A6089"/>
<rect x="78.3926" y="17.1367" width="2.55738" height="2.55738" transform="rotate(-22.9428 78.3926 17.1367)" fill="#2A6089"/>
<rect x="6.53613" y="66.0674" width="2.55738" height="2.55738" transform="rotate(-22.9428 6.53613 66.0674)" fill="#2A6089"/>
<rect x="22.2373" y="59.4209" width="2.55738" height="2.55738" transform="rotate(-22.9428 22.2373 59.4209)" fill="#2A6089"/>
<rect x="37.9375" y="52.7749" width="2.55738" height="2.55738" transform="rotate(-22.9428 37.9375 52.7749)" fill="#2A6089"/>
<rect x="53.6387" y="46.1289" width="2.55738" height="2.55738" transform="rotate(-22.9428 53.6387 46.1289)" fill="#2A6089"/>
<rect x="69.3389" y="39.4829" width="2.55738" height="2.55738" transform="rotate(-22.9428 69.3389 39.4829)" fill="#2A6089"/>
<rect x="85.0391" y="32.8374" width="2.55738" height="2.55738" transform="rotate(-22.9428 85.0391 32.8374)" fill="#2A6089"/>
<rect x="-2.51855" y="88.4136" width="2.55738" height="2.55738" transform="rotate(-22.9428 -2.51855 88.4136)" fill="#2A6089"/>
<rect x="13.1816" y="81.7676" width="2.55738" height="2.55738" transform="rotate(-22.9428 13.1816 81.7676)" fill="#2A6089"/>
<rect x="28.8828" y="75.1216" width="2.55738" height="2.55738" transform="rotate(-22.9428 28.8828 75.1216)" fill="#2A6089"/>
<rect x="44.583" y="68.4756" width="2.55738" height="2.55738" transform="rotate(-22.9428 44.583 68.4756)" fill="#2A6089"/>
<rect x="60.2852" y="61.8291" width="2.55738" height="2.55738" transform="rotate(-22.9428 60.2852 61.8291)" fill="#2A6089"/>
<rect x="75.9844" y="55.1836" width="2.55738" height="2.55738" transform="rotate(-22.9428 75.9844 55.1836)" fill="#2A6089"/>
<rect x="91.6846" y="48.5376" width="2.55738" height="2.55738" transform="rotate(-22.9428 91.6846 48.5376)" fill="#2A6089"/>
<rect x="4.12793" y="104.114" width="2.55738" height="2.55738" transform="rotate(-22.9428 4.12793 104.114)" fill="#2A6089"/>
<rect x="19.8281" y="97.4683" width="2.55738" height="2.55738" transform="rotate(-22.9428 19.8281 97.4683)" fill="#2A6089"/>
<rect x="35.5293" y="90.8223" width="2.55738" height="2.55738" transform="rotate(-22.9428 35.5293 90.8223)" fill="#2A6089"/>
<rect x="51.2295" y="84.1763" width="2.55738" height="2.55738" transform="rotate(-22.9428 51.2295 84.1763)" fill="#2A6089"/>
<rect x="66.9307" y="77.5298" width="2.55738" height="2.55738" transform="rotate(-22.9428 66.9307 77.5298)" fill="#2A6089"/>
<rect x="82.6309" y="70.8843" width="2.55738" height="2.55738" transform="rotate(-22.9428 82.6309 70.8843)" fill="#2A6089"/>
<rect x="98.3311" y="64.2383" width="2.55738" height="2.55738" transform="rotate(-22.9428 98.3311 64.2383)" fill="#2A6089"/>
<rect x="10.7734" y="119.814" width="2.55738" height="2.55738" transform="rotate(-22.9428 10.7734 119.814)" fill="#2A6089"/>
<rect x="26.4736" y="113.169" width="2.55738" height="2.55738" transform="rotate(-22.9428 26.4736 113.169)" fill="#2A6089"/>
<rect x="42.1748" y="106.522" width="2.55738" height="2.55738" transform="rotate(-22.9428 42.1748 106.522)" fill="#2A6089"/>
<rect x="57.875" y="99.8765" width="2.55738" height="2.55738" transform="rotate(-22.9428 57.875 99.8765)" fill="#2A6089"/>
<rect x="73.5771" y="93.2305" width="2.55738" height="2.55738" transform="rotate(-22.9428 73.5771 93.2305)" fill="#2A6089"/>
<rect x="89.2764" y="86.5845" width="2.55738" height="2.55738" transform="rotate(-22.9428 89.2764 86.5845)" fill="#2A6089"/>
<rect x="104.977" y="79.939" width="2.55738" height="2.55738" transform="rotate(-22.9428 104.977 79.939)" fill="#2A6089"/>
<rect x="1.71777" y="142.162" width="2.55738" height="2.55738" transform="rotate(-22.9428 1.71777 142.162)" fill="#2A6089"/>
<rect x="17.4199" y="135.515" width="2.55738" height="2.55738" transform="rotate(-22.9428 17.4199 135.515)" fill="#2A6089"/>
<rect x="33.1201" y="128.869" width="2.55738" height="2.55738" transform="rotate(-22.9428 33.1201 128.869)" fill="#2A6089"/>
<rect x="48.8213" y="122.223" width="2.55738" height="2.55738" transform="rotate(-22.9428 48.8213 122.223)" fill="#2A6089"/>
<rect x="64.5215" y="115.577" width="2.55738" height="2.55738" transform="rotate(-22.9428 64.5215 115.577)" fill="#2A6089"/>
<rect x="80.2227" y="108.931" width="2.55738" height="2.55738" transform="rotate(-22.9428 80.2227 108.931)" fill="#2A6089"/>
<rect x="95.9219" y="102.285" width="2.55738" height="2.55738" transform="rotate(-22.9428 95.9219 102.285)" fill="#2A6089"/>
<rect x="111.623" y="95.6392" width="2.55738" height="2.55738" transform="rotate(-22.9428 111.623 95.6392)" fill="#2A6089"/>
<rect x="8.36426" y="157.862" width="2.55738" height="2.55738" transform="rotate(-22.9428 8.36426 157.862)" fill="#2A6089"/>
<rect x="24.0654" y="151.216" width="2.55738" height="2.55738" transform="rotate(-22.9428 24.0654 151.216)" fill="#2A6089"/>
<rect x="39.7656" y="144.57" width="2.55738" height="2.55738" transform="rotate(-22.9428 39.7656 144.57)" fill="#2A6089"/>
<rect x="55.4668" y="137.923" width="2.55738" height="2.55738" transform="rotate(-22.9428 55.4668 137.923)" fill="#2A6089"/>
<rect x="71.167" y="131.278" width="2.55738" height="2.55738" transform="rotate(-22.9428 71.167 131.278)" fill="#2A6089"/>
<rect x="86.8691" y="124.631" width="2.55738" height="2.55738" transform="rotate(-22.9428 86.8691 124.631)" fill="#2A6089"/>
<rect x="102.568" y="117.986" width="2.55738" height="2.55738" transform="rotate(-22.9428 102.568 117.986)" fill="#2A6089"/>
<rect x="118.269" y="111.34" width="2.55738" height="2.55738" transform="rotate(-22.9428 118.269 111.34)" fill="#2A6089"/>
<rect x="-0.689453" y="180.208" width="2.55738" height="2.55738" transform="rotate(-22.9428 -0.689453 180.208)" fill="#2A6089"/>
<rect x="15.0098" y="173.562" width="2.55738" height="2.55738" transform="rotate(-22.9428 15.0098 173.562)" fill="#2A6089"/>
<rect x="30.7119" y="166.916" width="2.55738" height="2.55738" transform="rotate(-22.9428 30.7119 166.916)" fill="#2A6089"/>
<rect x="46.4121" y="160.27" width="2.55738" height="2.55738" transform="rotate(-22.9428 46.4121 160.27)" fill="#2A6089"/>
<rect x="62.1133" y="153.624" width="2.55738" height="2.55738" transform="rotate(-22.9428 62.1133 153.624)" fill="#2A6089"/>
<rect x="77.8135" y="146.978" width="2.55738" height="2.55738" transform="rotate(-22.9428 77.8135 146.978)" fill="#2A6089"/>
<rect x="93.5146" y="140.332" width="2.55738" height="2.55738" transform="rotate(-22.9428 93.5146 140.332)" fill="#2A6089"/>
<rect x="109.214" y="133.686" width="2.55738" height="2.55738" transform="rotate(-22.9428 109.214 133.686)" fill="#2A6089"/>
<rect x="124.915" y="127.04" width="2.55738" height="2.55738" transform="rotate(-22.9428 124.915 127.04)" fill="#2A6089"/>
<rect x="5.95605" y="195.909" width="2.55738" height="2.55738" transform="rotate(-22.9428 5.95605 195.909)" fill="#2A6089"/>
<rect x="21.6562" y="189.263" width="2.55738" height="2.55738" transform="rotate(-22.9428 21.6562 189.263)" fill="#2A6089"/>
<rect x="37.3574" y="182.617" width="2.55738" height="2.55738" transform="rotate(-22.9428 37.3574 182.617)" fill="#2A6089"/>
<rect x="53.0576" y="175.971" width="2.55738" height="2.55738" transform="rotate(-22.9428 53.0576 175.971)" fill="#2A6089"/>
<rect x="68.7588" y="169.325" width="2.55738" height="2.55738" transform="rotate(-22.9428 68.7588 169.325)" fill="#2A6089"/>
<rect x="84.459" y="162.679" width="2.55738" height="2.55738" transform="rotate(-22.9428 84.459 162.679)" fill="#2A6089"/>
<rect x="100.161" y="156.032" width="2.55738" height="2.55738" transform="rotate(-22.9428 100.161 156.032)" fill="#2A6089"/>
<rect x="115.86" y="149.387" width="2.55738" height="2.55738" transform="rotate(-22.9428 115.86 149.387)" fill="#2A6089"/>
<rect x="131.561" y="142.741" width="2.55738" height="2.55738" transform="rotate(-22.9428 131.561 142.741)" fill="#2A6089"/>
<rect x="-3.09766" y="218.255" width="2.55738" height="2.55738" transform="rotate(-22.9428 -3.09766 218.255)" fill="#2A6089"/>
<rect x="12.6025" y="211.609" width="2.55738" height="2.55738" transform="rotate(-22.9428 12.6025 211.609)" fill="#2A6089"/>
<rect x="28.3018" y="204.963" width="2.55738" height="2.55738" transform="rotate(-22.9428 28.3018 204.963)" fill="#2A6089"/>
<rect x="44.0039" y="198.317" width="2.55738" height="2.55738" transform="rotate(-22.9428 44.0039 198.317)" fill="#2A6089"/>
<rect x="59.7041" y="191.671" width="2.55738" height="2.55738" transform="rotate(-22.9428 59.7041 191.671)" fill="#2A6089"/>
<rect x="75.4053" y="185.025" width="2.55738" height="2.55738" transform="rotate(-22.9428 75.4053 185.025)" fill="#2A6089"/>
<rect x="91.1055" y="178.379" width="2.55738" height="2.55738" transform="rotate(-22.9428 91.1055 178.379)" fill="#2A6089"/>
<rect x="106.807" y="171.733" width="2.55738" height="2.55738" transform="rotate(-22.9428 106.807 171.733)" fill="#2A6089"/>
<rect x="122.506" y="165.087" width="2.55738" height="2.55738" transform="rotate(-22.9428 122.506 165.087)" fill="#2A6089"/>
<rect x="138.207" y="158.441" width="2.55738" height="2.55738" transform="rotate(-22.9428 138.207 158.441)" fill="#2A6089"/>
</svg>
