<svg width="144" height="221" viewBox="0 0 144 221" fill="none" xmlns="http://www.w3.org/2000/svg">
<rect y="60.8105" width="2.55738" height="2.55738" transform="rotate(-22.9428 0 60.8105)" fill="#2A6089"/>
<rect x="15.7002" y="54.1646" width="2.55738" height="2.55738" transform="rotate(-22.9428 15.7002 54.1646)" fill="#2A6089"/>
<rect x="31.3994" y="47.519" width="2.55738" height="2.55738" transform="rotate(-22.9428 31.3994 47.519)" fill="#2A6089"/>
<rect x="47.1016" y="40.8726" width="2.55738" height="2.55738" transform="rotate(-22.9428 47.1016 40.8726)" fill="#2A6089"/>
<rect x="62.8018" y="34.2266" width="2.55738" height="2.55738" transform="rotate(-22.9428 62.8018 34.2266)" fill="#2A6089"/>
<rect x="78.5029" y="27.5806" width="2.55738" height="2.55738" transform="rotate(-22.9428 78.5029 27.5806)" fill="#2A6089"/>
<rect x="94.2031" y="20.9346" width="2.55738" height="2.55738" transform="rotate(-22.9428 94.2031 20.9346)" fill="#2A6089"/>
<rect x="109.904" y="14.2881" width="2.55738" height="2.55738" transform="rotate(-22.9428 109.904 14.2881)" fill="#2A6089"/>
<rect x="125.604" y="7.64258" width="2.55738" height="2.55738" transform="rotate(-22.9428 125.604 7.64258)" fill="#2A6089"/>
<rect x="141.305" y="0.996582" width="2.55738" height="2.55738" transform="rotate(-22.9428 141.305 0.996582)" fill="#2A6089"/>
<rect x="6.64551" y="76.5112" width="2.55738" height="2.55738" transform="rotate(-22.9428 6.64551 76.5112)" fill="#2A6089"/>
<rect x="22.3467" y="69.8652" width="2.55738" height="2.55738" transform="rotate(-22.9428 22.3467 69.8652)" fill="#2A6089"/>
<rect x="38.0459" y="63.2197" width="2.55738" height="2.55738" transform="rotate(-22.9428 38.0459 63.2197)" fill="#2A6089"/>
<rect x="53.7471" y="56.5732" width="2.55738" height="2.55738" transform="rotate(-22.9428 53.7471 56.5732)" fill="#2A6089"/>
<rect x="69.4473" y="49.9272" width="2.55738" height="2.55738" transform="rotate(-22.9428 69.4473 49.9272)" fill="#2A6089"/>
<rect x="85.1484" y="43.2812" width="2.55738" height="2.55738" transform="rotate(-22.9428 85.1484 43.2812)" fill="#2A6089"/>
<rect x="100.849" y="36.6353" width="2.55738" height="2.55738" transform="rotate(-22.9428 100.849 36.6353)" fill="#2A6089"/>
<rect x="116.551" y="29.9888" width="2.55738" height="2.55738" transform="rotate(-22.9428 116.551 29.9888)" fill="#2A6089"/>
<rect x="132.25" y="23.3433" width="2.55738" height="2.55738" transform="rotate(-22.9428 132.25 23.3433)" fill="#2A6089"/>
<rect x="13.292" y="92.2114" width="2.55738" height="2.55738" transform="rotate(-22.9428 13.292 92.2114)" fill="#2A6089"/>
<rect x="28.9922" y="85.5654" width="2.55738" height="2.55738" transform="rotate(-22.9428 28.9922 85.5654)" fill="#2A6089"/>
<rect x="44.6914" y="78.9199" width="2.55738" height="2.55738" transform="rotate(-22.9428 44.6914 78.9199)" fill="#2A6089"/>
<rect x="60.3936" y="72.2734" width="2.55738" height="2.55738" transform="rotate(-22.9428 60.3936 72.2734)" fill="#2A6089"/>
<rect x="76.0938" y="65.6279" width="2.55738" height="2.55738" transform="rotate(-22.9428 76.0938 65.6279)" fill="#2A6089"/>
<rect x="91.7949" y="58.9814" width="2.55738" height="2.55738" transform="rotate(-22.9428 91.7949 58.9814)" fill="#2A6089"/>
<rect x="107.495" y="52.3354" width="2.55738" height="2.55738" transform="rotate(-22.9428 107.495 52.3354)" fill="#2A6089"/>
<rect x="123.196" y="45.6895" width="2.55738" height="2.55738" transform="rotate(-22.9428 123.196 45.6895)" fill="#2A6089"/>
<rect x="138.896" y="39.0435" width="2.55738" height="2.55738" transform="rotate(-22.9428 138.896 39.0435)" fill="#2A6089"/>
<rect x="19.9375" y="107.912" width="2.55738" height="2.55738" transform="rotate(-22.9428 19.9375 107.912)" fill="#2A6089"/>
<rect x="35.6387" y="101.266" width="2.55738" height="2.55738" transform="rotate(-22.9428 35.6387 101.266)" fill="#2A6089"/>
<rect x="51.3379" y="94.6206" width="2.55738" height="2.55738" transform="rotate(-22.9428 51.3379 94.6206)" fill="#2A6089"/>
<rect x="67.0391" y="87.9741" width="2.55738" height="2.55738" transform="rotate(-22.9428 67.0391 87.9741)" fill="#2A6089"/>
<rect x="82.7393" y="81.3281" width="2.55738" height="2.55738" transform="rotate(-22.9428 82.7393 81.3281)" fill="#2A6089"/>
<rect x="98.4404" y="74.6821" width="2.55738" height="2.55738" transform="rotate(-22.9428 98.4404 74.6821)" fill="#2A6089"/>
<rect x="114.141" y="68.0361" width="2.55738" height="2.55738" transform="rotate(-22.9428 114.141 68.0361)" fill="#2A6089"/>
<rect x="129.843" y="61.3896" width="2.55738" height="2.55738" transform="rotate(-22.9428 129.843 61.3896)" fill="#2A6089"/>
<rect x="26.584" y="123.613" width="2.55738" height="2.55738" transform="rotate(-22.9428 26.584 123.613)" fill="#2A6089"/>
<rect x="42.2842" y="116.967" width="2.55738" height="2.55738" transform="rotate(-22.9428 42.2842 116.967)" fill="#2A6089"/>
<rect x="57.9834" y="110.321" width="2.55738" height="2.55738" transform="rotate(-22.9428 57.9834 110.321)" fill="#2A6089"/>
<rect x="73.6855" y="103.675" width="2.55738" height="2.55738" transform="rotate(-22.9428 73.6855 103.675)" fill="#2A6089"/>
<rect x="89.3857" y="97.0288" width="2.55738" height="2.55738" transform="rotate(-22.9428 89.3857 97.0288)" fill="#2A6089"/>
<rect x="105.087" y="90.3828" width="2.55738" height="2.55738" transform="rotate(-22.9428 105.087 90.3828)" fill="#2A6089"/>
<rect x="120.787" y="83.7368" width="2.55738" height="2.55738" transform="rotate(-22.9428 120.787 83.7368)" fill="#2A6089"/>
<rect x="136.488" y="77.0903" width="2.55738" height="2.55738" transform="rotate(-22.9428 136.488 77.0903)" fill="#2A6089"/>
<rect x="33.2295" y="139.313" width="2.55738" height="2.55738" transform="rotate(-22.9428 33.2295 139.313)" fill="#2A6089"/>
<rect x="48.9307" y="132.667" width="2.55738" height="2.55738" transform="rotate(-22.9428 48.9307 132.667)" fill="#2A6089"/>
<rect x="64.6299" y="126.021" width="2.55738" height="2.55738" transform="rotate(-22.9428 64.6299 126.021)" fill="#2A6089"/>
<rect x="80.3311" y="119.375" width="2.55738" height="2.55738" transform="rotate(-22.9428 80.3311 119.375)" fill="#2A6089"/>
<rect x="96.0312" y="112.729" width="2.55738" height="2.55738" transform="rotate(-22.9428 96.0312 112.729)" fill="#2A6089"/>
<rect x="111.732" y="106.083" width="2.55738" height="2.55738" transform="rotate(-22.9428 111.732 106.083)" fill="#2A6089"/>
<rect x="127.433" y="99.437" width="2.55738" height="2.55738" transform="rotate(-22.9428 127.433 99.437)" fill="#2A6089"/>
<rect x="143.135" y="92.791" width="2.55738" height="2.55738" transform="rotate(-22.9428 143.135 92.791)" fill="#2A6089"/>
<rect x="39.876" y="155.014" width="2.55738" height="2.55738" transform="rotate(-22.9428 39.876 155.014)" fill="#2A6089"/>
<rect x="55.5762" y="148.368" width="2.55738" height="2.55738" transform="rotate(-22.9428 55.5762 148.368)" fill="#2A6089"/>
<rect x="71.2754" y="141.722" width="2.55738" height="2.55738" transform="rotate(-22.9428 71.2754 141.722)" fill="#2A6089"/>
<rect x="86.9775" y="135.076" width="2.55738" height="2.55738" transform="rotate(-22.9428 86.9775 135.076)" fill="#2A6089"/>
<rect x="102.678" y="128.43" width="2.55738" height="2.55738" transform="rotate(-22.9428 102.678 128.43)" fill="#2A6089"/>
<rect x="118.379" y="121.784" width="2.55738" height="2.55738" transform="rotate(-22.9428 118.379 121.784)" fill="#2A6089"/>
<rect x="134.079" y="115.138" width="2.55738" height="2.55738" transform="rotate(-22.9428 134.079 115.138)" fill="#2A6089"/>
<rect x="46.5215" y="170.714" width="2.55738" height="2.55738" transform="rotate(-22.9428 46.5215 170.714)" fill="#2A6089"/>
<rect x="62.2217" y="164.068" width="2.55738" height="2.55738" transform="rotate(-22.9428 62.2217 164.068)" fill="#2A6089"/>
<rect x="77.9219" y="157.422" width="2.55738" height="2.55738" transform="rotate(-22.9428 77.9219 157.422)" fill="#2A6089"/>
<rect x="93.623" y="150.776" width="2.55738" height="2.55738" transform="rotate(-22.9428 93.623 150.776)" fill="#2A6089"/>
<rect x="109.323" y="144.13" width="2.55738" height="2.55738" transform="rotate(-22.9428 109.323 144.13)" fill="#2A6089"/>
<rect x="125.024" y="137.484" width="2.55738" height="2.55738" transform="rotate(-22.9428 125.024 137.484)" fill="#2A6089"/>
<rect x="140.725" y="130.838" width="2.55738" height="2.55738" transform="rotate(-22.9428 140.725 130.838)" fill="#2A6089"/>
<rect x="53.168" y="186.415" width="2.55738" height="2.55738" transform="rotate(-22.9428 53.168 186.415)" fill="#2A6089"/>
<rect x="68.8682" y="179.769" width="2.55738" height="2.55738" transform="rotate(-22.9428 68.8682 179.769)" fill="#2A6089"/>
<rect x="84.5674" y="173.123" width="2.55738" height="2.55738" transform="rotate(-22.9428 84.5674 173.123)" fill="#2A6089"/>
<rect x="100.27" y="166.477" width="2.55738" height="2.55738" transform="rotate(-22.9428 100.27 166.477)" fill="#2A6089"/>
<rect x="115.97" y="159.831" width="2.55738" height="2.55738" transform="rotate(-22.9428 115.97 159.831)" fill="#2A6089"/>
<rect x="131.671" y="153.185" width="2.55738" height="2.55738" transform="rotate(-22.9428 131.671 153.185)" fill="#2A6089"/>
<rect x="59.8135" y="202.115" width="2.55738" height="2.55738" transform="rotate(-22.9428 59.8135 202.115)" fill="#2A6089"/>
<rect x="75.5137" y="195.469" width="2.55738" height="2.55738" transform="rotate(-22.9428 75.5137 195.469)" fill="#2A6089"/>
<rect x="91.2139" y="188.824" width="2.55738" height="2.55738" transform="rotate(-22.9428 91.2139 188.824)" fill="#2A6089"/>
<rect x="106.915" y="182.177" width="2.55738" height="2.55738" transform="rotate(-22.9428 106.915 182.177)" fill="#2A6089"/>
<rect x="122.615" y="175.531" width="2.55738" height="2.55738" transform="rotate(-22.9428 122.615 175.531)" fill="#2A6089"/>
<rect x="138.316" y="168.885" width="2.55738" height="2.55738" transform="rotate(-22.9428 138.316 168.885)" fill="#2A6089"/>
<rect x="66.46" y="217.815" width="2.55738" height="2.55738" transform="rotate(-22.9428 66.46 217.815)" fill="#2A6089"/>
<rect x="82.1602" y="211.169" width="2.55738" height="2.55738" transform="rotate(-22.9428 82.1602 211.169)" fill="#2A6089"/>
<rect x="97.8594" y="204.524" width="2.55738" height="2.55738" transform="rotate(-22.9428 97.8594 204.524)" fill="#2A6089"/>
<rect x="113.562" y="197.877" width="2.55738" height="2.55738" transform="rotate(-22.9428 113.562 197.877)" fill="#2A6089"/>
<rect x="129.262" y="191.232" width="2.55738" height="2.55738" transform="rotate(-22.9428 129.262 191.232)" fill="#2A6089"/>
</svg>
